<svg fill="#000000" width="800px" height="800px" viewBox="0 0 10 10" xmlns="http://www.w3.org/2000/svg">
              <path
                d="M456.7 437.4000000000001l-94.1-94.1a173.25 173.25 0 0 0 34.8-104.6c0-96.3-78.4-174.7-174.7-174.7S48 142.4000000000001 48 238.79999999999973c0 96.3 78.4 174.7 174.7 174.7 37.71 0 74.406-12.21 104.6-34.8l94.1 94.1a24.96 24.96 0 0 0 12.646 6.09c4.711 0.78 9.546 0.19 13.933-1.69a25.05 25.05 0 0 0 10.823-8.94 25 25 0 0 0 4.298-13.36 25.94 25.94 0 0 0-6.4-17.5M97.9 238.79999999999973a124.67 124.67 0 0 1 32.268-83.74 124.674 124.674 0 0 1 166.653-16.49 124.7 124.7 0 0 1 48.049 75.8c6.054 30.36 0.6 61.88-15.299 88.43a124.73 124.73 0 0 1-70.722 55.26c-29.615 9-61.519 6.66-89.507-6.56A124.69 124.69 0 0 1 97.9 238.79999999999973"
                style="fill: currentcolor"></path>
            </svg>